# xmcd
#
# Track frame offsets:
#	150
#	2205
#	20954
#	33378
#	40403
#	63284
#	80749
#	101583
#	106661
#	121066
#	134483
#	147332
#
# Disc length: 2222 seconds
#
# Revision: 1
# Processed by: cddbd v1.5.2PL0 Copyright (c) Steve Scherf et al.
# Submitted via: audiograbber 1.83.01
#
DISCID=a308ac0c
DTITLE=Donauwellenreiter - Messei
DYEAR=2014
DGENRE=Jazz
TTITLE0=Hint I
TTITLE1=Cyros
TTITLE2=Frau Maria
TTITLE3=Hint Ii
TTITLE4=Pentasong
TTITLE5=Messei
TTITLE6=Rudiments
TTITLE7=Hiint Iii
TTITLE8=Cafe Korb
TTITLE9=Supertonic
TTITLE10=Hint Iv
TTITLE11=Sela In Furs
EXTD=www.donauwellenreiter.com
EXTT0=
EXTT1=
EXTT2=
EXTT3=
EXTT4=
EXTT5=
EXTT6=
EXTT7=
EXTT8=
EXTT9=
EXTT10=
EXTT11=
PLAYORDER=
